Coordinates
version=1
nRows=21
nColumns=12
inDegrees=yes

Units are S.I. units (second, meters, Newtons, ...)
Angles are in degrees

endheader
time	SC_y	SC_z	SC_x	AC_y	AC_z	AC_x	GH_y	GH_z	GH_yy	EL_x	PS_y
       0.0              -45.17          37.73          23.74           50.7         -4.155          16.82         -81.72          23.93         -26.66          32.01          39.01
   0.01828              -45.17          37.73          23.74          50.71         -4.155          16.82          -81.7          23.94         -26.67          32.02          39.03
   0.03656              -45.17          37.72          23.75          50.71         -4.155          16.82         -81.67          23.94         -26.69          32.03          39.04
   0.05485              -45.17          37.72          23.76          50.71         -4.155          16.82         -81.65          23.94          -26.7          32.04          39.05
   0.07313              -45.16          37.71          23.77          50.71         -4.155          16.82         -81.62          23.94         -26.72          32.05          39.07
   0.09141              -45.16          37.71          23.78          50.71         -4.155          16.81          -81.6          23.95         -26.73          32.06          39.08
    0.1097              -45.16           37.7           23.8          50.71         -4.156          16.81         -81.57          23.95         -26.75          32.07           39.1
     0.128              -45.16          37.69          23.81          50.71         -4.156          16.81         -81.53          23.95         -26.77          32.08          39.11
    0.1463              -45.15          37.68          23.82          50.71         -4.156          16.81          -81.5          23.96         -26.79          32.09          39.13
    0.1645              -45.15          37.67          23.84          50.71         -4.156          16.81         -81.46          23.96         -26.81           32.1          39.15
    0.1828              -45.15          37.66          23.85          50.72         -4.157          16.81         -81.42          23.97         -26.84          32.11          39.17
    0.2011              -45.14          37.65          23.87          50.72         -4.157           16.8         -81.38          23.97         -26.86          32.13           39.2
    0.2194              -45.14          37.64          23.89          50.72         -4.157           16.8         -81.34          23.98         -26.89          32.14          39.22
    0.2377              -45.14          37.63          23.91          50.72         -4.158           16.8         -81.29          23.98         -26.92          32.16          39.25
     0.256              -45.13          37.62          23.93          50.72         -4.158           16.8         -81.23          23.99         -26.95          32.18          39.28
    0.2742              -45.13          37.61          23.95          50.73         -4.158          16.79         -81.18           24.0         -26.99           32.2          39.31
    0.2925              -45.12          37.59          23.98          50.73         -4.159          16.79         -81.11           24.0         -27.02          32.22          39.34
    0.3108              -45.11          37.57           24.0          50.73         -4.159          16.79         -81.05          24.01         -27.07          32.24          39.38
    0.3291              -45.11          37.56          24.03          50.73          -4.16          16.78         -80.97          24.02         -27.11          32.27          39.42
    0.3474               -45.1          37.54          24.07          50.74         -4.161          16.78         -80.89          24.03         -27.16           32.3          39.46
    0.3656              -45.09          37.52           24.1          50.74         -4.161          16.77          -80.8          24.04         -27.22          32.33          39.51
